<svg version="1.2" xmlns="http://www.w3.org/2000/svg" viewBox="0 0 435 436" width="50" height="50">
	<title>yape-seeklogo</title>
	<style>
		.s0 { fill: #5f0b72 } 
		.s1 { fill: #ffffff } 
		.s2 { fill: #01d0b5 } 
		.s3 { fill: #4c4c4c } 
	</style>
	<g id="Capa 1">
		<g id="&lt;Group&gt;">
			<g id="&lt;Group&gt;">
				<path id="&lt;Path&gt;" class="s0" d="m436.2 436.6h-436.4v-436.4h436.4z"/>
			</g>
			<path id="&lt;Compound Path&gt;" fill-rule="evenodd" class="s1" d="m332.7 283.8c1.9 4.6 0.3 9-4.6 9.9-9.7 1.7-19.4 2.9-29.2 4.2q-24.5 3.2-49.1 6.3c-2.5 0.4-3.8 1.4-4.5 4.1-0.5 2.5-1.7 5.3-3.6 7.1-1.5 1.5-4.8 2.8-6.6 2.2-1.8-0.6-2.9-3.7-3.9-5.9-0.6-1.1-0.2-2.7-0.3-4.8-6.3 1-12.3 1.8-18.3 3-18 3.6-35.9 7.4-53.9 11-3.2 0.6-4.7 2.2-5.7 5.3-5.2 16.1-11.3 31.9-21.8 45.6-5.2 6.7-10.7 13-18.5 16.8-8.1 3.9-16.2 4.9-23.7-1.1-7.3-5.7-8.9-13.6-7.1-22.3 4.1-19.8 15.6-34.7 31.9-45.7 7.3-4.9 15.5-8.4 23.2-12.6 1.4-0.8 3.1-1.9 3.6-3.2 3.2-9.1 6.1-18.2 9.3-28-3.4 2.9-6.2 5.5-9.2 7.8-5.4 4-11.4 5.6-17.5 1.8-6-3.8-7.4-10.2-6.4-16.6 1.4-8.7 3.7-17.2 6-25.7 1.2-4.5 3.3-8.8 4.6-13.3 0.9-2.9 1.6-6 1.8-9.1 0.3-6.4 1.4-8.3 5.5-8.1 6.3 0.3 10.7 4.6 9.5 10-1.9 8.3-4.6 16.4-6.8 24.6-1.1 4-2.2 8-2.6 12.1-0.1 2.1 0.7 5.3 2.2 6.2 1.5 0.9 5 0.2 6.5-1.1 3.1-2.8 6.3-6.1 7.8-9.9 5.5-13.3 10.4-26.8 15.2-40.3 2.4-6.8 6.6-11.2 13.6-12.8 5.8-1.4 8.3 0.9 6.7 6.7-6 22.4-12.3 44.7-18.5 67-2.3 8.3-4.6 16.5-7.2 25.5 6.2-1.1 11.7-2.1 17.2-3 17.4-2.8 34.9-5.6 52.3-8.3 3.1-0.5 4.8-1.4 5.1-4.8 0.3-3.8 1.4-7.5 2.1-11.1-4.3 1.3-8.4 3.3-12.7 3.6-4.9 0.3-7.7-3.4-9-8.2-1.9 2.6-3.5 5.2-5.5 7.3-4.6 4.9-10.1 6.7-16.7 4.8-6.2-1.8-9.3-6.2-10.7-12.1-3.2-13.4-0.8-26.3 3.7-39 3.3-9.2 7.5-17.8 14.4-25 8.1-8.3 15.2-9.3 25.1-3.5 3.7-6.6 4.7-7 10.3-5.6 4 1 5.6 3.4 4.8 7.2-2.1 10.4-4.4 20.8-6.5 31.3-1.2 6-2.2 12-2.9 18.1-0.1 1.6 1 3.3 1.6 5 1.6-0.5 3.5-0.7 4.6-1.7 1.6-1.6 3.3-3.7 3.8-5.8 3.5-17.1 6.8-34.3 10.2-51.4 1.2-6 8.4-8.2 12.9-3.8 1 1 1 3 1.4 4.5 1.6-1.6 3.5-3.3 5.3-5.1 9.2-8.9 21.1-5.7 24.3 6.5 3.8 14 1.1 27.7-3 41.2-2.5 8.5-5.7 16.7-11.7 23.4-7.9 8.7-17.1 9.6-26.7 2.8-0.7-0.5-1.3-0.9-2.7-1.9-1 7-2 13.5-3 20.5 9.9-1.3 19.5-2.6 29-3.6 15.6-1.4 31.2-2.7 46.8-3.9 3.5-0.3 6.3 1.4 7.8 4.9zm-71.8-27.1c6.9 0.6 10.9-3.7 13.6-9.1 4.5-9.2 7.5-19 8-30.5-0.1-1.4-0.3-4-0.9-6.4-1.2-4.8-4.7-6-8.1-2.5-2.9 3-5.9 6.5-7.2 10.3-3.6 11-6.3 22.3-9.3 33.6-0.9 3.2 1.1 4.4 3.9 4.6zm-42.6-44c-2.9 1.1-5.8 2.6-8 4.7-8.7 8.1-11.2 19-12.9 31.5 0.7 2.4 1.2 5.9 2.7 9.1 1.8 3.9 6.1 4.3 9.1 1.1 1.1-1.2 2.3-2.7 2.8-4.2 4.1-12.4 8.1-24.8 11.8-37.3 1.1-3.6-2-6.3-5.5-4.9zm-84.3 114.9c-14 6.4-24.2 15.4-31.2 27.7-2.2 3.7-3.8 8-4.8 12.2-0.5 1.8 0.5 4.8 1.9 5.9 1.1 0.9 4.2 0.4 5.8-0.6 2.6-1.6 5-3.7 7-6.1 9.6-11.1 15.7-24.2 21.3-39.1zm181.3-89.1c-0.4 4-1.3 8.2 2.3 11.1 3.6 2.7 7.6 1.2 10.8-0.9 4.3-3 8.3-6.4 12-10.1 3.9-3.9 5.9-3.8 8.1 1.1 2.7 6 2.1 8.2-2.4 12.9-6.8 7.2-14.4 13-24.1 15.5-11.4 2.9-20.5-3-22.5-14.7-0.6-3.3-0.8-6.8-1.1-10.3 1.7-21.6 8.1-41.1 24.6-56.3 4.1-3.8 9.1-5.6 14.8-5.4 10.4 0.5 16.4 7.9 14.6 18.1-2.9 16.3-15.5 29.6-31.9 33-2.9 0.6-4.2 1.8-4.7 4.4-0.1 0.5-0.4 1-0.5 1.6zm4.1-21.4q0.8 0.5 1.6 1.1c7.4-2.2 13.6-6.1 16.4-13.7 0.8-2.1 0.5-6-0.9-7.2-2.4-2-5.3 0.2-6.8 2.5-3.6 5.6-6.9 11.5-10.3 17.3z"/>
			<path id="&lt;Compound Path&gt;" fill-rule="evenodd" class="s2" d="m292.7 106.3c0 33.3-27 60.3-60.2 60.3-7.9 0-15.3-1.5-22.2-4.2l-18.9 13c-2 1.3-4.5-0.1-4.4-2.5l1.4-25.5c-10-10.8-16.2-25.2-16.2-41.1 0-33.3 27-60.3 60.3-60.3 33.2 0 60.2 27 60.2 60.3zm-53.5 15.3c0-3.2-0.8-6-2.3-8.3-1.4-2.4-3.6-4.3-6.5-5.7-1.8-0.9-4.8-1.9-9.2-3.1-5.2-1.4-7.2-2.5-8-3.2-1-0.9-1.5-2.2-1.5-3.9 0-1.9 0.7-3.4 2.1-4.6 1.5-1.2 3.8-1.9 6.7-1.9q4.4 0 6.7 2.1c1.5 1.4 2.4 3.7 2.7 6.6 0 0.2 0.1 1.1 0.9 1.9q1.2 1.1 3.5 1c1.4 0 2.3-0.6 2.7-1.1 0.9-1 0.9-2.2 0.8-2.3-0.1-3.3-0.8-6.3-2.3-8.8-1.4-2.5-3.5-4.5-6.1-5.8-2.6-1.3-5.6-2-9-2-5.1 0-9.1 1.5-12.1 4.3-3 2.9-4.5 6.6-4.5 11.1 0 2.5 0.5 4.8 1.5 6.8q1.6 3.1 4.5 5c1.8 1.3 4.8 2.5 9.1 3.8 4.5 1.3 7.5 2.3 8.8 2.9q1.7 1 2.6 2.4c0.6 0.9 0.9 2 0.9 3.4 0 2.2-0.8 4-2.5 5.4-1.6 1.4-4 2.1-7.2 2.1q-3.3 0-5.9-1.3-2.5-1.3-3.9-3.4c-0.9-1.4-1.5-3.5-1.8-5.9 0-0.5-0.1-1.2-0.7-1.7-0.7-0.8-1.9-1.1-3.4-1.1q-2 0.1-3 1.2c-0.8 1-0.7 2.1-0.7 2.1 0.1 5.7 1.9 10.3 5.3 13.6 3.4 3.4 8.1 5.1 13.7 5.1 3.7 0 6.8-0.7 9.5-2 2.6-1.4 4.7-3.4 6.2-6 1.6-2.6 2.4-5.6 2.4-8.7zm31.9-35.9c-2.1-1.1-4.7-0.3-5.8 1.7l-23.3 42.4c-1.1 2-0.3 4.6 1.7 5.7 0.6 0.4 1.3 0.5 2 0.5 1.6 0 3-0.8 3.7-2.1l23.3-42.4c1.1-2.1 0.4-4.6-1.6-5.8z"/>
		</g>
		<g id="&lt;Group&gt;">
			<path id="&lt;Compound Path&gt;" class="s3" d="m165.5 493.9q0.1 1.1-0.2 2-0.3 0.8-0.8 1.5-0.4 0.6-0.9 1.2-0.5 0.5-0.8 1-0.3 0.5-0.4 1-0.1 0.7 0.4 1.1 0.5 0.3 1.6 0.3 1.1 0 1.8 0 0.7 0 1.3 0 0.6-0.1 1.3-0.1l0.1 2.2q-0.6 0.1-1.1 0.2-0.5 0.1-1.1 0.1-0.5 0.1-1.2 0.2-0.8 0-1.8 0-2.4 0-3.5-0.8-1.2-0.9-1.2-2.6 0-0.9 0.4-1.6 0.3-0.7 0.9-1.3 0.6-0.6 1.1-1.2 0.6-0.6 1-1.4 0.5-0.7 0.6-1.8zm-1-4.8q0.7 0 0.9 0.3 0.3 0.2 0.3 0.8v1.1q0 0.6-0.3 0.9-0.2 0.2-0.9 0.2h-0.7q-0.7 0-0.9-0.2-0.2-0.3-0.2-0.9v-1.1q0-0.6 0.2-0.8 0.2-0.3 0.9-0.3z"/>
			<path id="&lt;Compound Path&gt;" class="s3" d="m180.6 485.2v2.6h-12.4v-2.6zm-4.5 0v15h-3.3v-15z"/>
			<path id="&lt;Compound Path&gt;" fill-rule="evenodd" class="s3" d="m185.5 485.1q1.2 0 2.5 0 1.2 0 2.4 0.1 1.2 0 2.3 0.1l-0.2 2.4h-5.8q-0.5 0-0.8 0.3-0.2 0.3-0.2 0.9v2.3h-3v2.3h3v3q0 0.5 0.2 0.8 0.3 0.3 0.9 0.3h5.7l0.2 2.4q-1.1 0.1-2.3 0.2-1.2 0-2.4 0-1.3 0-2.5 0-1.4 0-2.3-0.8-0.9-0.8-0.9-2.2v-9.1q0-1.3 0.9-2.2 0.9-0.8 2.3-0.8zm6.2 8.4v-2.3h-6v2.3z"/>
			<path id="&lt;Compound Path&gt;" class="s3" d="m204.7 484.9q1.1 0 2.4 0.1 1.3 0.1 2.5 0.5l-0.2 2.2q-1 0-2.2 0-1.3-0.1-2.6-0.1-0.6 0-1 0.1-0.4 0-0.7 0.1-0.2 0.2-0.4 0.5-0.1 0.2-0.1 0.7 0 0.8 0.4 1.2 0.4 0.3 1.2 0.6l2.9 0.9q1.8 0.6 2.5 1.7 0.7 1 0.7 2.7 0 1.3-0.3 2.1-0.3 0.9-0.9 1.4-0.7 0.4-1.8 0.7-1 0.2-2.6 0.2-0.7 0-2.1-0.1-1.4-0.1-3.1-0.5l0.2-2.4q1.3 0 2.2 0.1 1 0 1.7 0 0.6 0 1.1 0 0.9 0 1.4-0.1 0.5-0.1 0.7-0.4 0.2-0.3 0.2-0.9 0-0.6-0.2-0.9-0.1-0.3-0.4-0.5-0.3-0.2-0.9-0.3l-3-1.1q-1.8-0.6-2.5-1.6-0.7-1-0.7-2.7 0-1.3 0.3-2.1 0.3-0.8 1-1.3 0.7-0.5 1.7-0.6 1.1-0.2 2.6-0.2z"/>
			<path id="&lt;Compound Path&gt;" class="s3" d="m215.8 485.2v15h-3.3v-15z"/>
			<path id="&lt;Compound Path&gt;" fill-rule="evenodd" class="s3" d="m224.6 485q1.9 0 3.2 0.4 1.2 0.4 1.8 1.3 0.5 1 0.5 2.7 0 1.1-0.2 1.9-0.3 0.7-0.9 1.2-0.7 0.5-1.7 0.6v0.1q0.3 0.1 0.8 0.3 0.4 0.3 0.8 0.8 0.3 0.4 0.5 1.2l1.3 4.7h-3.5l-1.1-4.6q-0.2-0.7-0.6-1-0.4-0.3-1.1-0.3-1.4 0-2.3 0v-2.5h2.4q0.9 0 1.4-0.2 0.5-0.2 0.7-0.6 0.2-0.5 0.2-1.4 0-0.8-0.2-1.3-0.2-0.5-0.7-0.7-0.5-0.1-1.4-0.1-1.4 0-2.4 0v-2.3h-3.3q0.9-0.1 1.7-0.2 0.8 0 1.8 0 0.9 0 2.3 0zm-2.7 9.3q-1 0-1.6 0-0.7-0.1-1.3-0.1l0.1-2.4h3v-4.3q-0.6 0-1.1 0-1.4 0-1.9 0l-0.3-2.3v15h3.3v-5.9q-0.1 0-0.2 0z"/>
			<path id="&lt;Compound Path&gt;" class="s3" d="m244.9 485.2l-4.1 14.1q-0.1 0.4-0.4 0.6-0.3 0.3-0.7 0.3h-3.1q-0.4 0-0.7-0.3-0.4-0.2-0.4-0.6l-4.2-14.1h3.5l2.7 10.8q0.1 0.4 0.2 0.8 0.1 0.5 0.2 0.9h0.5q0.1-0.4 0.2-0.9 0.1-0.4 0.2-0.8l2.7-10.8z"/>
			<path id="&lt;Compound Path&gt;" class="s3" d="m249.9 485.2v15h-3.3v-15z"/>
			<path id="&lt;Compound Path&gt;" fill-rule="evenodd" class="s3" d="m258.9 484.9q1.8 0 3 0.4 1.3 0.3 2 1.2 0.8 0.9 1.1 2.4 0.4 1.5 0.4 3.8 0 2.2-0.4 3.7-0.3 1.6-1.1 2.4-0.7 0.9-2 1.3-1.2 0.4-3 0.4-1.8 0-3-0.4-1.2-0.4-2-1.3-0.8-0.8-1.1-2.4-0.4-1.5-0.4-3.7 0-2.3 0.4-3.8 0.3-1.5 1.1-2.4 0.8-0.9 2-1.2 1.2-0.4 3-0.4zm0 2.6q-1.1 0-1.8 0.5-0.6 0.4-0.9 1.5-0.3 1.2-0.3 3.2 0 2 0.3 3.1 0.3 1.1 0.9 1.6 0.7 0.4 1.8 0.4 1.2 0 1.8-0.4 0.6-0.5 0.9-1.6 0.3-1.1 0.3-3.1 0-2-0.3-3.2-0.3-1.1-0.9-1.5-0.6-0.5-1.8-0.5z"/>
			<path id="&lt;Compound Path&gt;" class="s3" d="m272.3 484.7q2.4 0 3.5 0.8 1.2 0.8 1.2 2.6 0 0.9-0.4 1.6-0.4 0.7-1 1.3-0.5 0.6-1.1 1.2-0.6 0.6-1 1.3-0.4 0.8-0.5 1.9h-2.6q0-1.1 0.3-2 0.2-0.9 0.7-1.5 0.5-0.7 1-1.2 0.4-0.5 0.8-1 0.3-0.5 0.3-1 0.1-0.7-0.4-1.1-0.4-0.3-1.6-0.3-1.1 0-1.8 0-0.7 0-1.2 0-0.6 0.1-1.4 0.1l-0.1-2.2q0.6-0.1 1.1-0.2 0.6-0.1 1.1-0.1 0.6-0.1 1.3-0.2 0.7 0 1.8 0zm-0.2 12.2q0.6 0 0.9 0.2 0.2 0.3 0.2 0.9v1q0 0.7-0.2 0.9-0.3 0.3-0.9 0.3h-0.8q-0.6 0-0.9-0.3-0.2-0.2-0.2-0.9v-1q0-0.6 0.2-0.9 0.3-0.2 0.9-0.2z"/>
			<path id="&lt;Compound Path&gt;" class="s3" d="m181.9 511.3l-5.1 10.2h-3.1l-5.1-10.2h3.4l2.6 5.5q0.2 0.4 0.3 0.9 0.1 0.5 0.2 1h0.2q0.2-0.5 0.3-1 0.1-0.5 0.3-0.9l2.5-5.5zm-5 8.2v6.8h-3.3v-6.8z"/>
			<path id="&lt;Compound Path&gt;" fill-rule="evenodd" class="s3" d="m189.3 511.3q0.4 0 0.7 0.2 0.3 0.2 0.4 0.6l4.4 14.2h-3.4l-1.1-4h1.3v-2.5h-2l-1.3-4.6q-0.1-0.3-0.2-0.7 0-0.4-0.1-0.7h-0.6q-0.1 0.3-0.1 0.7-0.1 0.4-0.2 0.7l-1.3 4.6h-2v2.5h1.3l-1.1 4h-3.4l4.4-14.2q0.1-0.4 0.4-0.6 0.3-0.2 0.7-0.2zm1 11l-0.7-2.5h-3.7l-0.7 2.5z"/>
			<path id="&lt;Compound Path&gt;" class="s3" d="m202 511q2.2 0 3.4 0.5 1.1 0.4 1.7 1.5 0.5 1 0.5 3 0 1.9-0.5 2.9-0.5 1.1-1.6 1.5-1.1 0.4-3 0.4-1 0-2 0-0.9-0.1-1.8-0.3-0.8-0.1-1.4-0.2-0.6-0.2-0.8-0.3l0.1-1.7q1.3 0 2.7 0 1.3 0 2.7 0 0.9 0 1.3-0.2 0.5-0.2 0.7-0.7 0.2-0.5 0.2-1.4 0-1-0.2-1.5-0.2-0.5-0.7-0.8-0.4-0.2-1.3-0.2-2 0-3.4 0.1-1.5 0-2 0l-0.3-2.3q0.9-0.2 1.7-0.2 0.8 0 1.8 0 0.9-0.1 2.2-0.1zm-2.4 0.3v15h-3.3v-15z"/>
			<path id="&lt;Compound Path&gt;" fill-rule="evenodd" class="s3" d="m212.8 511.2q1.2 0 2.5 0 1.2 0 2.4 0.1 1.2 0 2.2 0.1l-0.1 2.4h-5.8q-0.5 0-0.8 0.3-0.3 0.3-0.3 0.8v2.4h-2.9v2.3h2.9v3q0 0.5 0.3 0.8 0.3 0.3 0.8 0.3h5.8l0.1 2.4q-1 0.1-2.2 0.1-1.2 0.1-2.4 0.1-1.3 0-2.5 0-1.4 0-2.3-0.8-0.9-0.9-0.9-2.2v-9.1q0-1.4 0.9-2.2 0.9-0.8 2.3-0.8zm6.2 8.4v-2.3h-6.1v2.3z"/>
			<path id="&lt;Compound Path&gt;" fill-rule="evenodd" class="s3" d="m229.5 511.3q0.4 0 0.7 0.2 0.3 0.2 0.4 0.6l4.4 14.2h-3.4l-1.1-4h1.3v-2.5h-2l-1.3-4.6q-0.1-0.3-0.2-0.7-0.1-0.4-0.1-0.7h-0.6q-0.1 0.3-0.2 0.7 0 0.4-0.1 0.7l-1.3 4.6h-2v2.5h1.3l-1.1 4h-3.4l4.4-14.2q0.1-0.4 0.4-0.6 0.3-0.2 0.7-0.2zm1 11l-0.7-2.5h-3.8l-0.7 2.5z"/>
			<path id="&lt;Compound Path&gt;" class="s3" d="m251.8 511.3q1.2 0 1.3 1.2l0.5 13.8h-3l-0.5-12.5h-0.4l-2.4 9.4q-0.2 1-1.4 1h-2q-1.1 0-1.4-1l-2.4-9.4h-0.4l-0.4 12.5h-3.1l0.6-13.8q0-1.2 1.2-1.2h3.1q1.1 0 1.3 1l1.9 7.6q0.2 0.5 0.3 1 0 0.6 0.2 1.1h0.2q0.1-0.5 0.2-1.1 0.1-0.5 0.2-1.1l2-7.5q0.2-1 1.3-1z"/>
			<path id="&lt;Compound Path&gt;" fill-rule="evenodd" class="s3" d="m259.4 511.2q1.3 0 2.5 0 1.2 0 2.4 0.1 1.2 0 2.3 0.1l-0.2 2.4h-5.7q-0.6 0-0.9 0.3-0.2 0.3-0.2 0.8v2.4h-3v2.3h3v3q0 0.5 0.2 0.8 0.3 0.3 0.9 0.3h5.7l0.2 2.4q-1.1 0.1-2.3 0.1-1.2 0.1-2.4 0.1-1.2 0-2.5 0-1.4 0-2.3-0.8-0.9-0.9-0.9-2.2v-9.1q0-1.4 0.9-2.2 0.9-0.8 2.3-0.8zm6.2 8.4v-2.3h-6v2.3z"/>
			<path id="&lt;Compound Path&gt;" class="s3" d="m164.6 537.1q1.8 0 2.9 0.3 1 0.4 1.6 1.2 0.6 0.9 0.8 2.4 0.2 1.4 0.2 3.7 0 2.5-0.3 4.1-0.4 1.6-1.1 2.4-0.7 0.8-2 1.1-1.2 0.3-2.9 0.3-0.6 0-1.6-0.1-1 0-2.2-0.3l0.2-2.1q0.6 0 1.1 0 0.5 0 1 0 0.6 0 1.5 0 1 0 1.6-0.2 0.6-0.3 1-0.9 0.3-0.6 0.4-1.7 0.1-1.1 0.1-2.8 0-1.5 0-2.5-0.1-1-0.3-1.5-0.2-0.6-0.7-0.8-0.4-0.2-1.3-0.2-0.9 0-1.4 0.3-0.5 0.3-0.6 1-0.1 0.6-0.1 1.6 0 0.9 0.1 1.4 0.2 0.6 0.7 0.8 0.4 0.3 1.2 0.3 0.6 0 1.1-0.2 0.5-0.1 1.1-0.5 0.6-0.4 1.4-1l0.1 1.2q-0.7 1.1-1.4 1.7-0.6 0.6-1.4 0.9-0.8 0.2-1.8 0.2-1.7 0-2.6-0.6-0.9-0.6-1.3-1.7-0.4-1-0.4-2.4 0-1.9 0.5-3.1 0.5-1.2 1.6-1.7 1.2-0.6 3.2-0.6z"/>
			<path id="&lt;Compound Path&gt;" fill-rule="evenodd" class="s3" d="m178 537.1q1.7 0 2.7 0.2 1 0.3 1.6 0.7 0.6 0.5 0.8 1.3 0.2 0.7 0.2 1.8 0 0.8-0.2 1.6-0.3 0.7-0.8 1.2-0.4 0.5-1.2 0.6v0.1q1 0.1 1.6 0.6 0.5 0.6 0.7 1.5 0.3 0.8 0.3 1.9 0 1.4-0.5 2.3-0.4 0.9-1.7 1.3-1.2 0.4-3.5 0.4-2.2 0-3.4-0.4-1.2-0.4-1.7-1.3-0.5-0.9-0.5-2.3 0-1.1 0.2-1.9 0.2-0.9 0.8-1.5 0.6-0.5 1.6-0.6v-0.1q-0.8-0.1-1.3-0.6-0.5-0.5-0.7-1.2-0.2-0.8-0.2-1.6 0-1.1 0.2-1.8 0.2-0.8 0.8-1.3 0.6-0.4 1.6-0.7 1-0.2 2.6-0.2zm0.1 8.6q-0.8 0-1.3 0.1-0.5 0.1-0.8 0.3-0.3 0.3-0.4 0.7-0.1 0.4-0.1 1.2 0 0.8 0.2 1.3 0.2 0.4 0.8 0.6 0.5 0.2 1.6 0.2 1 0 1.5-0.2 0.5-0.2 0.7-0.6 0.2-0.5 0.2-1.3 0-0.8-0.1-1.2-0.1-0.4-0.4-0.7-0.2-0.2-0.7-0.3-0.5-0.1-1.2-0.1zm0-6.3q-1 0-1.5 0.2-0.5 0.1-0.7 0.6-0.1 0.4-0.1 1.3 0 0.8 0.1 1.2 0.2 0.4 0.8 0.6 0.5 0.1 1.4 0.1 0.9 0 1.4-0.1 0.5-0.2 0.7-0.6 0.1-0.4 0.1-1.2 0-0.9-0.2-1.3-0.1-0.5-0.6-0.6-0.5-0.2-1.4-0.2z"/>
			<path id="&lt;Compound Path&gt;" class="s3" d="m192.2 537.1q0.5 0 1.5 0 1 0.1 2.1 0.4l-0.2 2.1q-0.6 0-1-0.1-0.5 0-1.1 0-0.5 0-1.3 0-1 0-1.6 0.2-0.6 0.2-0.9 0.8-0.4 0.6-0.5 1.8-0.1 1.1-0.1 2.9 0 1.5 0.1 2.5 0 1 0.3 1.5 0.2 0.5 0.7 0.7 0.4 0.2 1.3 0.2 1 0 1.4-0.3 0.5-0.3 0.6-0.9 0.1-0.6 0.1-1.6 0-1-0.1-1.5-0.2-0.6-0.7-0.8-0.4-0.2-1.3-0.2-0.6 0-1.1 0.2-0.5 0.1-1.1 0.5-0.6 0.3-1.4 1l-0.1-1.3q0.7-1.1 1.4-1.7 0.6-0.6 1.4-0.8 0.8-0.2 1.9-0.2 1.6 0 2.6 0.5 0.9 0.4 1.3 1.5 0.3 1 0.3 2.7 0 1.4-0.2 2.4-0.2 1-0.7 1.6-0.6 0.7-1.7 1.1-1 0.3-2.7 0.3-1.6 0-2.7-0.4-1.1-0.3-1.7-1.1-0.6-0.9-0.9-2.3-0.2-1.5-0.2-3.7 0-2.6 0.4-4.2 0.4-1.6 1.1-2.4 0.8-0.9 2-1.1 1.2-0.3 2.8-0.3z"/>
			<path id="&lt;Compound Path&gt;" fill-rule="evenodd" class="s3" d="m204.5 537q2.1 0 3.4 0.8 1.3 0.8 1.8 2.5 0.6 1.7 0.6 4.5 0 2.9-0.6 4.6-0.5 1.7-1.8 2.5-1.3 0.7-3.4 0.7-2.2 0-3.5-0.7-1.2-0.8-1.8-2.5-0.5-1.7-0.5-4.6 0-2.8 0.5-4.5 0.6-1.7 1.8-2.5 1.3-0.8 3.5-0.8zm-0.1 2.6q-0.7 0-1.2 0.3-0.4 0.2-0.7 0.8-0.3 0.5-0.4 1.6-0.1 1-0.1 2.5 0 1.6 0.1 2.6 0.1 1 0.4 1.6 0.3 0.6 0.7 0.8 0.5 0.2 1.2 0.2 0.8 0 1.3-0.2 0.5-0.2 0.8-0.8 0.2-0.6 0.4-1.6 0.1-1 0.1-2.6 0-1.5-0.1-2.5-0.2-1.1-0.4-1.6-0.3-0.6-0.8-0.8-0.5-0.3-1.3-0.3z"/>
			<path id="&lt;Compound Path&gt;" class="s3" d="m219.1 537.3l-3.6 8.7q-0.2 0.3 0 0.5 0.1 0.2 0.4 0.2h8.6v2l-1.8 0.3h-9.2q-0.6 0-1-0.4-0.5-0.3-0.6-0.8-0.1-0.6 0.1-1.1l3.9-9.4zm3.7 2.9v12.1h-3.1v-9.7l0.5-2.4z"/>
			<path id="&lt;Compound Path&gt;" fill-rule="evenodd" class="s3" d="m232 537.1q1.6 0 2.6 0.2 1 0.3 1.6 0.7 0.6 0.5 0.8 1.3 0.2 0.7 0.2 1.8 0 0.8-0.2 1.6-0.2 0.7-0.7 1.2-0.5 0.5-1.3 0.6v0.1q1 0.1 1.6 0.6 0.5 0.6 0.8 1.5 0.2 0.8 0.2 1.9 0 1.4-0.5 2.3-0.4 0.9-1.6 1.3-1.3 0.4-3.5 0.4-2.3 0-3.5-0.4-1.2-0.4-1.7-1.3-0.5-0.9-0.5-2.3 0-1.1 0.2-1.9 0.3-0.9 0.8-1.5 0.6-0.5 1.6-0.6v-0.1q-0.8-0.1-1.3-0.6-0.5-0.5-0.7-1.2-0.2-0.8-0.2-1.6 0-1.1 0.2-1.8 0.2-0.8 0.8-1.3 0.6-0.4 1.6-0.7 1-0.2 2.7-0.2zm0 8.6q-0.8 0-1.3 0.1-0.5 0.1-0.8 0.3-0.3 0.3-0.4 0.7-0.1 0.4-0.1 1.2 0 0.8 0.2 1.3 0.2 0.4 0.8 0.6 0.6 0.2 1.6 0.2 1 0 1.5-0.2 0.5-0.2 0.7-0.6 0.2-0.5 0.2-1.3 0-0.8-0.1-1.2-0.1-0.4-0.3-0.7-0.3-0.2-0.8-0.3-0.5-0.1-1.2-0.1zm0-6.3q-1 0-1.4 0.2-0.5 0.1-0.7 0.6-0.2 0.4-0.2 1.3 0 0.8 0.2 1.2 0.2 0.4 0.7 0.6 0.5 0.1 1.4 0.1 1 0 1.4-0.1 0.5-0.2 0.7-0.6 0.1-0.4 0.1-1.2 0-0.9-0.1-1.3-0.2-0.5-0.7-0.6-0.5-0.2-1.4-0.2z"/>
			<path id="&lt;Compound Path&gt;" class="s3" d="m248.3 537.3q0.6 0 0.9 0.3 0.4 0.2 0.5 0.6 0.2 0.4 0 0.9l-4.6 13.2h-3.3l3.9-10.9q0.1-0.3 0.2-0.7 0.2-0.3 0.4-0.7h-6.9l-0.1-2.7z"/>
			<path id="&lt;Compound Path&gt;" class="s3" d="m257.9 537.3l-3.6 8.7q-0.1 0.3 0 0.5 0.2 0.2 0.5 0.2h8.6v2l-1.9 0.3h-9.1q-0.6 0-1.1-0.4-0.4-0.3-0.5-0.8-0.2-0.6 0.1-1.1l3.9-9.4zm3.6 2.9v12.1h-3v-9.7l0.5-2.4z"/>
			<path id="&lt;Compound Path&gt;" fill-rule="evenodd" class="s3" d="m270.8 537.1q1.6 0 2.7 0.2 1 0.3 1.6 0.7 0.5 0.5 0.8 1.3 0.2 0.7 0.2 1.8 0 0.8-0.3 1.6-0.2 0.7-0.7 1.2-0.5 0.5-1.3 0.6v0.1q1.1 0.1 1.6 0.6 0.6 0.6 0.8 1.5 0.2 0.8 0.2 1.9 0 1.4-0.4 2.3-0.5 0.9-1.7 1.3-1.2 0.4-3.5 0.4-2.2 0-3.4-0.4-1.3-0.4-1.7-1.3-0.5-0.9-0.5-2.3 0-1.1 0.2-1.9 0.2-0.9 0.8-1.5 0.5-0.5 1.6-0.6v-0.1q-0.8-0.1-1.3-0.6-0.5-0.5-0.7-1.2-0.3-0.8-0.3-1.6 0-1.1 0.3-1.8 0.2-0.8 0.8-1.3 0.5-0.4 1.6-0.7 1-0.2 2.6-0.2zm0.1 8.6q-0.8 0-1.3 0.1-0.5 0.1-0.8 0.3-0.3 0.3-0.4 0.7-0.1 0.4-0.1 1.2 0 0.8 0.2 1.3 0.2 0.4 0.8 0.6 0.5 0.2 1.5 0.2 1 0 1.6-0.2 0.5-0.2 0.7-0.6 0.2-0.5 0.2-1.3 0-0.8-0.1-1.2-0.1-0.4-0.4-0.7-0.3-0.2-0.7-0.3-0.5-0.1-1.2-0.1zm-0.1-6.3q-0.9 0-1.4 0.2-0.5 0.1-0.7 0.6-0.2 0.4-0.2 1.3 0 0.8 0.2 1.2 0.2 0.4 0.7 0.6 0.5 0.1 1.5 0.1 0.9 0 1.4-0.1 0.5-0.2 0.6-0.6 0.2-0.4 0.2-1.2 0-0.9-0.2-1.3-0.2-0.5-0.6-0.6-0.5-0.2-1.5-0.2z"/>
			<path id="&lt;Compound Path&gt;" fill-rule="evenodd" class="s3" d="m145.3 563.2q2 0 3.1 0.4 1.2 0.3 1.7 1.2 0.5 0.8 0.5 2.4 0 1.6-0.6 2.4-0.6 0.8-2 1v0.1q1.7 0.1 2.4 1.2 0.7 1 0.7 2.8 0 1.5-0.5 2.4-0.5 0.8-1.7 1.1-1.1 0.4-2.9 0.4-1.4 0-2.5 0-1.1 0-2-0.1-0.9 0-1.9-0.1h3.3v-2.2q1.1 0 2.5 0 0.9 0 1.5-0.2 0.5-0.2 0.7-0.6 0.2-0.5 0.2-1.4 0-0.9-0.2-1.4-0.2-0.5-0.8-0.7-0.5-0.2-1.4-0.2h-2.5v-2.1h2.4q0.8 0 1.3-0.2 0.5-0.1 0.7-0.6 0.1-0.4 0.1-1.2 0-0.8-0.2-1.2-0.2-0.4-0.7-0.6-0.5-0.1-1.4-0.1-1.2 0-2.1 0-0.1 0-0.1 0v-2.3h-3.3q0.9-0.1 1.7-0.1 0.8 0 1.8 0 0.9-0.1 2.2-0.1zm-5.3 12.9q0.5 0 2 0.1 0.4 0 0.9 0v-4.5h-3v-2.1h3v-3.9q-0.9 0-1.6 0-0.7 0-1.3 0l-0.4-2.3v15z"/>
			<path id="&lt;Compound Path&gt;" fill-rule="evenodd" class="s3" d="m160.7 563.4q0.4 0 0.7 0.3 0.3 0.2 0.5 0.6l4.3 14.1h-3.4l-1.1-3.9h1.3v-2.5h-2l-1.3-4.6q0-0.4-0.1-0.8-0.1-0.3-0.2-0.7h-0.6q0 0.4-0.1 0.7-0.1 0.4-0.2 0.8l-1.3 4.6h-2v2.5h1.3l-1.1 3.9h-3.4l4.4-14.1q0.1-0.4 0.4-0.6 0.3-0.3 0.8-0.3zm1 11.1l-0.7-2.5h-3.8l-0.7 2.5z"/>
			<path id="&lt;Compound Path&gt;" class="s3" d="m172.7 563.1q1.1 0 2.4 0.2 1.3 0.1 2.5 0.4l-0.2 2.2q-0.9 0-2.2 0-1.3 0-2.5 0-0.7 0-1.1 0-0.4 0-0.7 0.2-0.2 0.1-0.3 0.4-0.1 0.3-0.1 0.8 0 0.7 0.3 1.1 0.4 0.3 1.2 0.6l2.9 1q1.8 0.6 2.5 1.6 0.7 1.1 0.7 2.7 0 1.3-0.3 2.2-0.3 0.8-0.9 1.3-0.7 0.5-1.7 0.7-1.1 0.2-2.7 0.2-0.7 0-2.1-0.1-1.3-0.1-3.1-0.5l0.2-2.3q1.3 0 2.3 0 0.9 0 1.6 0.1 0.6 0 1.1 0 0.9 0 1.4-0.1 0.5-0.1 0.7-0.5 0.2-0.3 0.2-0.9 0-0.5-0.2-0.8-0.1-0.4-0.4-0.5-0.3-0.2-0.9-0.4l-3-1q-1.7-0.7-2.4-1.7-0.8-1-0.8-2.7 0-1.3 0.4-2.1 0.3-0.8 0.9-1.3 0.7-0.4 1.7-0.6 1.1-0.2 2.6-0.2z"/>
			<path id="&lt;Compound Path&gt;" class="s3" d="m183.8 563.4v15h-3.3v-15z"/>
			<path id="&lt;Compound Path&gt;" class="s3" d="m190.1 563.4v11.2q0 0.6 0.3 0.9 0.3 0.2 0.9 0.2h5.2l0.1 2.5q-1.5 0.2-3.2 0.2-1.7 0.1-3.3 0.1-1.7 0-2.5-0.9-0.8-0.9-0.8-2.3v-11.9z"/>
			<path id="&lt;Compound Path&gt;" class="s3" d="m201.8 563.4v15h-3.3v-15z"/>
			<path id="&lt;Compound Path&gt;" fill-rule="evenodd" class="s3" d="m210.8 563.1q1.8 0 3 0.4 1.2 0.4 2 1.3 0.7 0.8 1.1 2.3 0.3 1.6 0.3 3.8 0 2.3-0.3 3.8-0.4 1.5-1.1 2.4-0.8 0.9-2 1.2-1.2 0.4-3 0.4-1.8 0-3-0.4-1.3-0.3-2-1.2-0.8-0.9-1.2-2.4-0.3-1.5-0.3-3.8 0-2.2 0.3-3.8 0.4-1.5 1.2-2.3 0.7-0.9 2-1.3 1.2-0.4 3-0.4zm0 2.6q-1.2 0-1.8 0.5-0.7 0.5-0.9 1.6-0.3 1.1-0.3 3.1 0 2 0.3 3.1 0.2 1.2 0.9 1.6 0.6 0.5 1.8 0.5 1.1 0 1.7-0.5 0.7-0.4 1-1.6 0.2-1.1 0.2-3.1 0-2-0.2-3.1-0.3-1.1-1-1.6-0.6-0.5-1.7-0.5z"/>
			<path id="&lt;Compound Path&gt;" fill-rule="evenodd" class="s3" d="m230.4 563.1q1.8 0 3 0.4 1.3 0.4 2 1.3 0.8 0.8 1.1 2.3 0.4 1.6 0.4 3.8 0 2.3-0.4 3.8-0.3 1.5-1.1 2.4-0.7 0.9-2 1.2-1.2 0.4-3 0.4-1.8 0-3-0.4-1.2-0.3-2-1.2-0.8-0.9-1.1-2.4-0.3-1.5-0.3-3.8 0-2.2 0.3-3.8 0.3-1.5 1.1-2.3 0.8-0.9 2-1.3 1.2-0.4 3-0.4zm0 2.6q-1.1 0-1.8 0.5-0.6 0.5-0.9 1.6-0.2 1.1-0.2 3.1 0 2 0.2 3.1 0.3 1.2 0.9 1.6 0.7 0.5 1.8 0.5 1.1 0 1.8-0.5 0.6-0.4 0.9-1.6 0.3-1.1 0.3-3.1 0-2-0.3-3.1-0.3-1.1-0.9-1.6-0.7-0.5-1.8-0.5zm-1.1 13.4q1.5 0.6 3.1 1 1.6 0.4 3.4 0.6l-0.9 2.9q-1.9-0.5-3.5-1.2-1.6-0.7-2.8-1.5z"/>
			<path id="&lt;Compound Path&gt;" class="s3" d="m251.4 563.4v9q0 2.3-0.6 3.7-0.5 1.4-1.8 2-1.3 0.6-3.5 0.6-2.3 0-3.6-0.6-1.4-0.6-2-2-0.6-1.4-0.6-3.7v-9h3.3v9q0 1.4 0.3 2.2 0.2 0.8 0.8 1.2 0.6 0.3 1.6 0.3 1.1 0 1.7-0.3 0.6-0.4 0.8-1.2 0.3-0.8 0.3-2.2v-9z"/>
			<path id="&lt;Compound Path&gt;" class="s3" d="m257.6 563.4v15h-3.3v-15z"/>
			<path id="&lt;Compound Path&gt;" class="s3" d="m265.6 563.1q1.1 0 2.4 0.2 1.3 0.1 2.6 0.4l-0.3 2.2q-0.9 0-2.2 0-1.3 0-2.5 0-0.6 0-1.1 0-0.4 0-0.6 0.2-0.3 0.1-0.4 0.4-0.1 0.3-0.1 0.8 0 0.7 0.3 1.1 0.4 0.3 1.3 0.6l2.9 1q1.8 0.6 2.5 1.6 0.7 1.1 0.7 2.7 0 1.3-0.3 2.2-0.4 0.8-1 1.3-0.7 0.5-1.7 0.7-1.1 0.2-2.6 0.2-0.8 0-2.1-0.1-1.4-0.1-3.2-0.5l0.3-2.3q1.2 0 2.2 0 0.9 0 1.6 0.1 0.7 0 1.2 0 0.8 0 1.3-0.1 0.5-0.1 0.7-0.5 0.2-0.3 0.2-0.9 0-0.5-0.1-0.8-0.2-0.4-0.5-0.5-0.3-0.2-0.8-0.4l-3.1-1q-1.7-0.7-2.4-1.7-0.7-1-0.7-2.7 0-1.3 0.3-2.1 0.3-0.8 1-1.3 0.6-0.4 1.7-0.6 1-0.2 2.5-0.2z"/>
			<path id="&lt;Compound Path&gt;" class="s3" d="m279.1 563.2q2.2 0 3.3 0.4 1.2 0.5 1.8 1.5 0.5 1.1 0.5 3 0 1.9-0.5 3-0.5 1.1-1.6 1.5-1.1 0.4-3 0.4-1 0-2-0.1-0.9-0.1-1.8-0.2-0.8-0.1-1.4-0.3-0.6-0.1-0.8-0.2l0.1-1.7q1.3 0 2.6 0 1.4 0 2.8 0 0.8 0 1.3-0.2 0.5-0.2 0.7-0.7 0.2-0.6 0.2-1.5 0-0.9-0.2-1.5-0.2-0.5-0.7-0.7-0.5-0.2-1.3-0.2-2 0-3.5 0-1.4 0-1.9 0.1l-0.3-2.4q0.9-0.1 1.7-0.1 0.8-0.1 1.7-0.1 1 0 2.3 0zm-2.4 0.2v15h-3.3v-15z"/>
			<path id="&lt;Compound Path&gt;" fill-rule="evenodd" class="s3" d="m289.9 563.3q1.2 0 2.5 0.1 1.2 0 2.4 0 1.2 0.1 2.2 0.2l-0.1 2.4h-5.8q-0.5 0-0.8 0.3-0.3 0.2-0.3 0.8v2.3h-2.9v2.4h2.9v2.9q0 0.6 0.3 0.9 0.3 0.2 0.8 0.2h5.8l0.1 2.5q-1 0-2.2 0.1-1.2 0.1-2.4 0.1-1.3 0-2.5 0-1.4 0-2.3-0.9-0.9-0.8-0.9-2.1v-9.1q0-1.4 0.9-2.2 0.9-0.9 2.3-0.9zm6.2 8.5v-2.4h-6.1v2.4z"/>
		</g>
	</g>
</svg>